<?xml version="1.0" encoding="UTF-8" standalone="no"?>
<!-- Created with Inkscape (http://www.inkscape.org/) -->

<svg
   width="87.912842mm"
   height="149.43848mm"
   viewBox="0 0 87.912842 149.43848"
   version="1.1"
   id="svg5"
   xml:space="preserve"
   inkscape:version="1.2.2 (b0a8486541, 2022-12-01)"
   sodipodi:docname="Logo_versuche.svg"
   inkscape:export-filename="Logo_versuche.png"
   inkscape:export-xdpi="116.11441"
   inkscape:export-ydpi="116.11441"
   xmlns:inkscape="http://www.inkscape.org/namespaces/inkscape"
   xmlns:sodipodi="http://sodipodi.sourceforge.net/DTD/sodipodi-0.dtd"
   xmlns="http://www.w3.org/2000/svg"
   xmlns:svg="http://www.w3.org/2000/svg"><sodipodi:namedview
     id="namedview7"
     pagecolor="#ffffff"
     bordercolor="#666666"
     borderopacity="1.0"
     inkscape:showpageshadow="2"
     inkscape:pageopacity="0.0"
     inkscape:pagecheckerboard="0"
     inkscape:deskcolor="#d1d1d1"
     inkscape:document-units="mm"
     showgrid="false"
     inkscape:zoom="0.25"
     inkscape:cx="13196"
     inkscape:cy="8158"
     inkscape:window-width="1920"
     inkscape:window-height="1008"
     inkscape:window-x="1920"
     inkscape:window-y="0"
     inkscape:window-maximized="0"
     inkscape:current-layer="layer1"
     showguides="true" /><defs
     id="defs2"><style
       id="style83745">.cls-1{fill-rule:evenodd;}</style><style
       id="style113731">.cls-1{fill-rule:evenodd;}</style></defs><g
     inkscape:label="Ebene 1"
     inkscape:groupmode="layer"
     id="layer1"
     transform="translate(-3822.3153,-2075.9221)"><g
       id="g9047"
       inkscape:export-filename="./Kaderblick_analyse_player_with_title.png"
       inkscape:export-xdpi="147.92897"
       inkscape:export-ydpi="147.92897"><g
         id="g254377-9-7-3"
         transform="translate(4.7990644,1115.6999)"
         inkscape:export-filename="./kaderblick_player_icon.png"
         inkscape:export-xdpi="116.11441"
         inkscape:export-ydpi="116.11441"><text
           xml:space="preserve"
           style="font-size:17.4193px;line-height:1.25;font-family:Inter;-inkscape-font-specification:Inter;fill:#02b008;fill-opacity:1;stroke:none;stroke-width:0.19658;stroke-dasharray:none;stroke-opacity:1"
           x="3817.5974"
           y="1093.6344"
           id="text7516-0-2-5-7-4-8-6-8-5-4-9-8-5-3-6-5-6"><tspan
             sodipodi:role="line"
             id="tspan7514-4-7-0-7-3-8-5-5-2-5-9-9-9-6-9-35-7"
             style="font-style:normal;font-variant:normal;font-weight:normal;font-stretch:normal;font-family:Impact;-inkscape-font-specification:Impact;fill:#02b008;fill-opacity:1;stroke:none;stroke-width:0.19658;stroke-dasharray:none;stroke-opacity:1"
             x="3817.5974"
             y="1093.6344">K</tspan></text><text
           xml:space="preserve"
           style="font-size:9.79362px;line-height:1.25;font-family:Inter;-inkscape-font-specification:Inter;stroke-width:0.36726"
           x="3828.2834"
           y="1093.5704"
           id="text13228-6-1-5-8-8-0-2-7-2-2-0-5-6-5"><tspan
             sodipodi:role="line"
             id="tspan13226-4-4-0-7-4-2-5-9-8-0-8-9-2-3"
             style="font-style:normal;font-variant:normal;font-weight:normal;font-stretch:normal;font-size:17.6285px;font-family:Impact;-inkscape-font-specification:'Impact, Normal';font-variant-ligatures:normal;font-variant-caps:normal;font-variant-numeric:normal;font-variant-east-asian:normal;stroke-width:0.36726"
             x="3828.2834"
             y="1093.5704">ADERBLICK</tspan></text><path
           style="fill:#ffffff;fill-opacity:1;stroke:#000000;stroke-width:4;stroke-linecap:butt;stroke-linejoin:miter;stroke-dasharray:none;stroke-opacity:1"
           d="m 3820.7353,976.79229 41.6079,-14.4496 40.9115,14.6237 0.1741,44.04511 c -0.3709,22.5985 -23.3111,39.2654 -41.5208,48.7456 -33.5979,-17.1524 -42.1708,-36.5239 -42.3913,-49.9642 z"
           id="path8808-4-63-9-3-4-9-7-6-3-8-8-9-5"
           sodipodi:nodetypes="ccccccc" /><path
           style="fill:#c83a3a;fill-opacity:1;stroke-width:0.128452"
           id="path8688-45-8-6-7-37-3-3-7-4-7-1-1-6"
           sodipodi:type="arc"
           sodipodi:cx="3861.8547"
           sodipodi:cy="979.90894"
           sodipodi:rx="5.4643841"
           sodipodi:ry="5.2864027"
           sodipodi:start="0"
           sodipodi:end="6.281029"
           sodipodi:open="true"
           sodipodi:arc-type="chord"
           d="m 3867.3191,979.90894 a 5.4643841,5.2864027 0 0 1 -5.4614,5.2864 5.4643841,5.2864027 0 0 1 -5.4673,-5.2807 5.4643841,5.2864027 0 0 1 5.4555,-5.2921 5.4643841,5.2864027 0 0 1 5.4732,5.275 z" /><path
           style="fill:#c83a3a;fill-opacity:1;stroke-width:0.104987"
           id="path8688-4-2-5-0-1-3-8-5-3-7-0-7-2-2"
           sodipodi:type="arc"
           sodipodi:cx="3844.4521"
           sodipodi:cy="986.09814"
           sodipodi:rx="4.5536532"
           sodipodi:ry="4.2377353"
           sodipodi:start="0"
           sodipodi:end="6.281029"
           sodipodi:open="true"
           sodipodi:arc-type="chord"
           d="m 3849.0058,986.09814 a 4.5536532,4.2377353 0 0 1 -4.5512,4.23774 4.5536532,4.2377353 0 0 1 -4.5561,-4.23317 4.5536532,4.2377353 0 0 1 4.5463,-4.2423 4.5536532,4.2377353 0 0 1 4.561,4.2286 z" /><path
           style="fill:#c83a3a;fill-opacity:1;stroke-width:0.105609"
           id="path8688-4-7-5-6-4-3-00-8-0-5-7-8-5-7-9"
           sodipodi:type="arc"
           sodipodi:cx="3879.2507"
           sodipodi:cy="986.14648"
           sodipodi:rx="4.4601092"
           sodipodi:ry="4.3780518"
           sodipodi:start="0"
           sodipodi:end="6.281029"
           sodipodi:open="true"
           sodipodi:arc-type="chord"
           d="m 3883.7108,986.14648 a 4.4601092,4.3780518 0 0 1 -4.4577,4.37806 4.4601092,4.3780518 0 0 1 -4.4625,-4.37334 4.4601092,4.3780518 0 0 1 4.4529,-4.38276 4.4601092,4.3780518 0 0 1 4.4673,4.3686 z" /><path
           style="fill:none;stroke:#000000;stroke-width:4;stroke-linecap:butt;stroke-linejoin:miter;stroke-dasharray:none;stroke-opacity:1"
           d="m 3820.195,1006.6702 h 83.3436"
           id="path10313-7-1-10-8-1-4-4-3-1-9-3-0-1" /><path
           id="path10367-43-15-4-0-5-3-1-5-6-9-8-9-2"
           style="fill:#c83a3a;fill-opacity:1;stroke-width:4.30101;stroke-dasharray:none"
           d="m 3844.5475,992.0985 a 7.5,3.8820899 0 0 0 -7.4829,3.809 v 0 0.077 5.4389 h 15.0002 v -5.4431 -0.01 -0.065 h -0.01 a 7.5,3.8820899 0 0 0 -7.5076,-3.8091 z" /><path
           id="path10367-4-0-9-8-9-8-5-9-9-5-8-0-3-7"
           style="fill:#c83a3a;fill-opacity:1;stroke-width:5.65071;stroke-dasharray:none"
           d="m 3862.0104,986.9133 a 10,5.0256577 0 0 0 -9.9818,4.9981 v 0 0.033 9.3684 h 20.0003 v -9.401 0 a 10,5.0256577 0 0 0 -10.0149,-4.9981 z" /><path
           id="path10367-5-7-84-7-7-0-0-4-5-5-4-7-6-0"
           style="fill:#c83a3a;fill-opacity:1;stroke-width:4.30101;stroke-dasharray:none"
           d="m 3879.4696,992.1132 a 7.5,3.8820899 0 0 0 -7.4827,3.8091 v 0 0.077 5.4389 h 15.0002 v -5.443 -0.01 -0.064 0 a 7.5,3.8820899 0 0 0 -7.5076,-3.8091 z" /><path
           style="fill:#c83a3a;fill-opacity:1;stroke:none;stroke-width:0.264583px;stroke-linecap:butt;stroke-linejoin:miter;stroke-opacity:1"
           d="m 3826.2803,1011.8957 16.0735,-0.1323 c 1.7027,14.5868 9.3594,17.7355 17.661,19.6453 l -0.066,30.2287 c 0,0 -8.9959,-4.6302 -9.1943,-5.0271 -0.1984,-0.3969 0.1323,-20.5713 0.1323,-20.5713 -6.8077,-4.1235 -14.1567,-7.2418 -23.4156,-6.8131 -1.8609,-5.1113 -1.3116,-11.2099 -1.1907,-17.3302 z"
           id="path20055-8-8-0-9-0-5-1-9-4-2-7-0-9"
           sodipodi:nodetypes="ccccsccc" /><path
           style="fill:#c83a3a;fill-opacity:1;stroke:none;stroke-width:0.264583px;stroke-linecap:butt;stroke-linejoin:miter;stroke-opacity:1"
           d="m 3897.5743,1011.8677 -16.0735,-0.1323 c -1.7026,14.5867 -9.3593,17.7354 -17.6609,19.6453 l 0.066,30.2286 c 0,0 8.9958,-4.6302 9.1943,-5.027 0.1984,-0.3969 -0.1324,-20.5714 -0.1324,-20.5714 6.8077,-4.1235 14.1567,-7.2417 23.4156,-6.813 1.8609,-5.1113 1.3116,-11.2099 1.1907,-17.3302 z"
           id="path20055-9-6-10-8-9-0-9-4-7-6-6-3-6-3"
           sodipodi:nodetypes="ccccsccc" /><path
           style="fill:#c83a3a;fill-opacity:1;stroke:none;stroke-width:0.264583px;stroke-linecap:butt;stroke-linejoin:miter;stroke-opacity:1"
           d="m 3828.86,1032.5001 c 6.2844,-0.1459 12.4889,1.4353 18.6531,5.6886 v 15.875 c -6.8378,-5.2006 -16.5249,-14.3492 -18.6531,-21.5636 z"
           id="path21800-8-3-6-3-4-3-3-9-8-8-4-2-6"
           sodipodi:nodetypes="cccc" /><path
           style="fill:#c83a3a;fill-opacity:1;stroke:none;stroke-width:0.264583px;stroke-linecap:butt;stroke-linejoin:miter;stroke-opacity:1"
           d="m 3895.1696,1032.6304 c -6.2844,-0.146 -12.489,1.4352 -18.6531,5.6885 v 15.875 c 6.8377,-5.2005 16.5248,-14.3492 18.6531,-21.5635 z"
           id="path21800-7-8-0-2-2-7-4-6-9-1-7-6-6-0"
           sodipodi:nodetypes="cccc" /><path
           style="fill:#ffffff;fill-opacity:1;stroke-width:3.96912;stroke-dasharray:none"
           id="path10311-4-4-4-4-5-6-4-0-0-8-5-1-6"
           sodipodi:type="arc"
           sodipodi:cx="3861.949"
           sodipodi:cy="1012.1764"
           sodipodi:rx="19"
           sodipodi:ry="19"
           sodipodi:start="0"
           sodipodi:end="6.281029"
           sodipodi:open="true"
           sodipodi:arc-type="chord"
           d="m 3880.949,1012.1764 a 19,19 0 0 1 -18.9898,19 19,19 0 0 1 -19.0102,-18.9795 19,19 0 0 1 18.9692,-19.02048 19,19 0 0 1 19.0307,18.95898 z" /><path
           style="fill:#c83a3a;fill-opacity:1;stroke:none;stroke-width:4.15817;stroke-dasharray:none"
           id="path23528-4-7-3-3-2-2-2-89-9-5-8-2"
           sodipodi:type="arc"
           sodipodi:cx="3861.949"
           sodipodi:cy="1012.1764"
           sodipodi:rx="14"
           sodipodi:ry="14"
           sodipodi:start="0"
           sodipodi:end="6.281029"
           sodipodi:open="true"
           sodipodi:arc-type="chord"
           d="m 3875.949,1012.1764 a 14,14 0 0 1 -13.9925,14 14,14 0 0 1 -14.0075,-13.9849 14,14 0 0 1 13.9773,-14.01509 14,14 0 0 1 14.0226,13.96979 z" /><path
           style="fill:#ffffff;fill-opacity:1;stroke:none;stroke-width:0.264583px;stroke-linecap:butt;stroke-linejoin:miter;stroke-opacity:1"
           d="m 3857.2516,1006.7041 v 10.9447 l 9.3949,-5.4241 z"
           id="path23530-4-9-7-1-5-2-1-1-8-5-7-6" /></g><text
         xml:space="preserve"
         style="font-size:14.5942px;line-height:1.25;font-family:Inter;-inkscape-font-specification:Inter;stroke-width:0.54728"
         x="3822.5068"
         y="2224.0352"
         id="text4925-0-0-6"><tspan
           sodipodi:role="line"
           id="tspan4923-3-9-4"
           style="font-style:normal;font-variant:normal;font-weight:normal;font-stretch:normal;font-size:14.5942px;font-family:Impact;-inkscape-font-specification:'Impact, Normal';font-variant-ligatures:normal;font-variant-caps:normal;font-variant-numeric:normal;font-variant-east-asian:normal;stroke-width:0.54728"
           x="3822.5068"
           y="2224.0352">Analyse Player</tspan></text></g></g><style
     type="text/css"
     id="style82399"><![CDATA[
	.st0{fill:#4CAF50;}
	.st1{fill:#2196F3;}
	.st2{fill:#F44336;}
	.st3{fill:#262626;}
	.st4{fill:#FFD54F;}
	.st5{fill-rule:evenodd;clip-rule:evenodd;fill:#262626;}
	.st6{fill-rule:evenodd;clip-rule:evenodd;fill:#FFFFFF;}
]]></style></svg>
